<svg width="128" height="128" viewBox="0 0 128 128" fill="none" xmlns="http://www.w3.org/2000/svg">
<g clip-path="url(#clip0_4023_1695)">
<path d="M64 128C99.3462 128 128 99.3462 128 64C128 28.6538 99.3462 0 64 0C28.6538 0 0 28.6538 0 64C0 99.3462 28.6538 128 64 128Z" fill="#F0F0F0"/>
<path d="M86.2608 64C86.2608 69.5653 76.2943 83.4783 64 83.4783C51.7058 83.4783 41.7393 69.5653 41.7393 64C41.7393 51.7055 51.7058 41.7393 64 41.7393C76.2943 41.7393 86.2608 51.7055 86.2608 64Z" fill="#D80027"/>
<path d="M86.2608 64C86.2608 76.2945 76.2943 86.2607 64 86.2607C51.7058 86.2607 41.7393 76.2945 41.7393 64" fill="#0052B4"/>
<path d="M87.5938 83.6768L93.4956 77.7749L97.4302 81.7095L91.5284 87.6114L87.5938 83.6768Z" fill="black"/>
<path d="M77.7539 93.5137L83.6558 87.6118L87.5904 91.5464L81.6885 97.4483L77.7539 93.5137Z" fill="black"/>
<path d="M99.3984 95.4805L105.3 89.5786L109.235 93.5132L103.333 99.4151L99.3984 95.4805Z" fill="black"/>
<path d="M89.5596 105.318L95.4614 99.4165L99.3961 103.351L93.4942 109.253L89.5596 105.318Z" fill="black"/>
<path d="M93.4961 89.5791L99.398 83.6772L103.333 87.6119L97.4307 93.5137L93.4961 89.5791Z" fill="black"/>
<path d="M83.6592 99.416L89.561 93.5142L93.4957 97.4488L87.5938 103.351L83.6592 99.416Z" fill="black"/>
<path d="M99.4248 44.334L83.6865 28.5956L87.6211 24.661L103.359 40.3994L99.4248 44.334Z" fill="black"/>
<path d="M83.6826 40.4004L77.7808 34.4985L81.7152 30.5641L87.6171 36.4659L83.6826 40.4004Z" fill="black"/>
<path d="M93.5195 50.2393L87.6177 44.3374L91.5521 40.4029L97.454 46.3048L93.5195 50.2393Z" fill="black"/>
<path d="M95.4854 28.5947L89.5835 22.6929L93.5181 18.7582L99.42 24.6601L95.4854 28.5947Z" fill="black"/>
<path d="M105.327 38.4355L99.4253 32.5337L103.36 28.5991L109.262 34.5009L105.327 38.4355Z" fill="black"/>
<path d="M22.6885 89.5684L38.4268 105.307L34.4922 109.241L18.7538 93.503L22.6885 89.5684Z" fill="black"/>
<path d="M38.4258 93.499L44.3276 99.4009L40.3932 103.335L34.4913 97.4335L38.4258 93.499Z" fill="black"/>
<path d="M28.5889 83.665L34.4907 89.5669L30.5561 93.5015L24.6542 87.5997L28.5889 83.665Z" fill="black"/>
<path d="M34.4912 77.7617L50.2296 93.5001L46.2949 97.4347L30.5566 81.6963L34.4912 77.7617Z" fill="black"/>
<path d="M38.4258 22.6807L22.6874 38.419L18.7528 34.4844L34.4911 18.746L38.4258 22.6807Z" fill="black"/>
<path d="M44.3271 28.582L28.5888 44.3204L24.6542 40.3857L40.3925 24.6474L44.3271 28.582Z" fill="black"/>
<path d="M50.2344 34.4873L34.496 50.2257L30.5616 46.2912L46.2999 30.5528L50.2344 34.4873Z" fill="black"/>
</g>
<defs>
<clipPath id="clip0_4023_1695">
<rect width="128" height="128" fill="white"/>
</clipPath>
</defs>
</svg>
