<svg width="128" height="128" viewBox="0 0 128 128" fill="none" xmlns="http://www.w3.org/2000/svg">
<g clip-path="url(#clip0_4023_1642)">
<path d="M64 128C99.3462 128 128 99.3462 128 64C128 28.6538 99.3462 0 64 0C28.6538 0 0 28.6538 0 64C0 99.3462 28.6538 128 64 128Z" fill="#D80027"/>
<path d="M35.025 38.9492L40.55 55.9492H58.425L43.975 66.4742L49.5 83.4742L35.025 72.9742L20.55 83.4742L26.1 66.4742L11.625 55.9492H29.5L35.025 38.9492Z" fill="#FFDA44"/>
<path d="M75.8748 99.1246L71.6498 93.9246L65.3998 96.3496L69.0248 90.7246L64.7998 85.4996L71.2748 87.2246L74.9248 81.5996L75.2748 88.2996L81.7748 90.0246L75.4998 92.4246L75.8748 99.1246Z" fill="#FFDA44"/>
<path d="M84.2748 83.8746L86.2748 77.4746L80.7998 73.5996L87.4998 73.4996L89.4748 67.0996L91.6498 73.4496L98.3498 73.3746L92.9748 77.3746L95.1248 83.7246L89.6498 79.8496L84.2748 83.8746Z" fill="#FFDA44"/>
<path d="M95.6002 46.9748L92.6502 52.9998L97.4502 57.6748L90.8252 56.7248L87.8752 62.7248L86.7252 56.1248L80.0752 55.1748L86.0252 52.0498L84.8752 45.4248L89.6752 50.0998L95.6002 46.9748Z" fill="#FFDA44"/>
<path d="M76.0496 28.7246L75.5496 35.3996L81.7746 37.9246L75.2496 39.5246L74.7746 46.2246L71.2496 40.5246L64.7246 42.1246L69.0496 36.9996L65.4996 31.3246L71.7246 33.8496L76.0496 28.7246Z" fill="#FFDA44"/>
</g>
<defs>
<clipPath id="clip0_4023_1642">
<rect width="128" height="128" fill="white"/>
</clipPath>
</defs>
</svg>
