<svg width="128" height="128" viewBox="0 0 128 128" fill="none" xmlns="http://www.w3.org/2000/svg">
<g clip-path="url(#clip0_4023_1646)">
<path d="M64 128C99.3462 128 128 99.3462 128 64C128 28.6538 99.3462 0 64 0C28.6538 0 0 28.6538 0 64C0 99.3462 28.6538 128 64 128Z" fill="#F0F0F0"/>
<path d="M61.2178 64.0004H128C128 58.2239 127.23 52.6279 125.796 47.3047H61.2178V64.0004Z" fill="#D80027"/>
<path d="M61.2178 30.6088H118.607C114.689 24.2158 109.68 18.5651 103.839 13.9131H61.2178V30.6088Z" fill="#D80027"/>
<path d="M64.0001 128C79.0624 128 92.9066 122.794 103.839 114.087H24.1611C35.0936 122.794 48.9379 128 64.0001 128Z" fill="#D80027"/>
<path d="M9.39383 97.3911H118.607C121.752 92.2588 124.191 86.6488 125.796 80.6953H2.20508C3.80933 86.6488 6.24858 92.2588 9.39383 97.3911V97.3911Z" fill="#D80027"/>
<path d="M29.646 9.9945H35.4782L30.0532 13.9358L32.1255 20.313L26.7008 16.3717L21.276 20.313L23.066 14.8038C18.2895 18.7825 14.103 23.444 10.653 28.638H12.5218L9.0685 31.1467C8.5305 32.0442 8.0145 32.956 7.52 33.8812L9.169 38.9565L6.0925 36.7212C5.32775 38.3415 4.62825 39.9982 3.9995 41.6895L5.81625 47.2815H12.5218L7.09675 51.2228L9.169 57.6L3.74425 53.6587L0.49475 56.0197C0.1695 58.6342 0 61.2973 0 64H64C64 28.654 64 24.487 64 0C51.357 0 39.5712 3.6675 29.646 9.9945V9.9945ZM32.1255 57.6L26.7008 53.6587L21.276 57.6L23.3482 51.2228L17.9233 47.2815H24.6287L26.7008 40.9043L28.7728 47.2815H35.4782L30.0532 51.2228L32.1255 57.6ZM30.0532 32.5793L32.1255 38.9565L26.7008 35.0153L21.276 38.9565L23.3482 32.5793L17.9233 28.638H24.6287L26.7008 22.2607L28.7728 28.638H35.4782L30.0532 32.5793ZM55.082 57.6L49.6572 53.6587L44.2325 57.6L46.3047 51.2228L40.8797 47.2815H47.5853L49.6572 40.9043L51.7293 47.2815H58.4347L53.0098 51.2228L55.082 57.6ZM53.0098 32.5793L55.082 38.9565L49.6572 35.0153L44.2325 38.9565L46.3047 32.5793L40.8797 28.638H47.5853L49.6572 22.2607L51.7293 28.638H58.4347L53.0098 32.5793ZM53.0098 13.9358L55.082 20.313L49.6572 16.3717L44.2325 20.313L46.3047 13.9358L40.8797 9.9945H47.5853L49.6572 3.61725L51.7293 9.9945H58.4347L53.0098 13.9358Z" fill="#0052B4"/>
</g>
<defs>
<clipPath id="clip0_4023_1646">
<rect width="128" height="128" fill="white"/>
</clipPath>
</defs>
</svg>
